<svg width="26" height="28" viewBox="0 0 26 28" fill="none" xmlns="http://www.w3.org/2000/svg">
<path d="M17.6512 11.9756C22.0512 13.6656 25.3512 18.4186 25.6512 23.3829C25.9512 28.3472 25.7512 26.0235 25.4512 26.5516C24.7512 27.7134 22.8512 27.291 22.6512 25.9179C22.4512 24.5448 22.6512 23.2773 22.2512 21.6929C19.8512 12.1869 7.05118 11.4475 3.75118 20.6367C0.451181 29.8259 3.25118 23.8054 3.05118 25.8122C2.85118 27.8191 0.25118 27.8191 0.0511804 25.8122C-0.44882 19.8973 2.75118 14.0881 8.05118 11.9756C4.85118 8.27883 6.35118 1.94146 11.0512 0.673988C15.7512 -0.593487 21.9512 6.80011 17.6512 11.9756ZM12.4512 3.52581C8.15118 4.05392 8.55118 10.9194 12.8512 10.9194C17.1512 10.9194 17.2512 2.99769 12.4512 3.52581Z" fill="#F7F5EE"/>
</svg>
