<svg width="35" height="31" viewBox="0 0 35 31" fill="none" xmlns="http://www.w3.org/2000/svg">
<path d="M35 8.74915V9.6933L31.4157 20.4955C31.0203 21.3563 30.2297 21.995 29.3072 22.0783H9.01355C8.93449 22.0783 8.88178 22.0783 8.80271 22.1339C8.72364 22.1894 8.11747 23.6612 8.11747 23.7723C8.11747 24.0222 8.2756 24.3276 8.53916 24.3554H27.8313C29.2282 24.8275 28.7274 26.7991 27.2779 26.5214C27.6732 27.6877 27.6468 28.8262 26.9089 29.8259C25.7492 31.381 23.509 31.381 22.323 29.8259C21.137 28.2709 21.5324 27.6599 21.9541 26.5214H12.1235C12.8878 28.2431 12.0708 30.4091 10.2786 30.8812C7.53765 31.6032 5.56099 28.493 7.11596 26.0771C6.16717 25.2163 5.79819 24.161 6.19352 22.8559C6.58886 21.5507 7.08961 21.2175 7.0369 20.6066L3.55798 2.66771L3.50527 2.61217C2.68825 2.55663 1.7131 2.72324 0.92244 2.61217C-0.28991 2.47332 -0.34262 0.58502 0.975151 0.446174C2.29292 0.307328 3.53163 0.362866 4.40136 0.446174C5.27108 0.529481 5.21837 0.723865 5.37651 1.22371C5.66642 2.11232 5.71913 3.27863 5.95633 4.22278L6.00904 4.30609L6.3253 4.38939L32.6017 6.44431C33.4977 6.58315 34.1303 6.97192 34.6047 7.77723L34.9473 8.74915H35ZM6.45708 6.61092L9.14533 19.9401H29.2018C29.2018 19.9123 29.439 19.718 29.439 19.718L32.9443 9.22122C32.9443 8.88799 32.6017 8.6103 32.2854 8.6103L6.43072 6.58315L6.45708 6.61092ZM10.1205 27.2712C9.30346 26.4103 8.06476 27.771 8.90813 28.5763C9.75151 29.3816 10.8848 28.0765 10.1205 27.2712ZM24.0361 28.6041C24.8532 29.4372 26.0128 28.0209 25.2221 27.2712C24.4315 26.5214 23.2455 27.7988 24.0361 28.6041Z" fill="#F7F5EE"/>
</svg>
