<?xml version="1.0" encoding="UTF-8"?>
<svg id="Calque_1" data-name="Calque 1" xmlns="http://www.w3.org/2000/svg" viewBox="0 0 110.89 102.97">
  <defs>
    <style>
      .cls-1 {
        fill: #063;
      }

      .cls-2 {
        opacity: .5;
      }
    </style>
  </defs>
  <g class="cls-2">
    <path class="cls-1" d="M48.58,16.46c7.78,6.96,11.05,17.99,5.02,27.3-.21.33.17.76-.8.52.16-7.74-3.24-15.93-9.15-20.97.78,2.23,2.33,4.01,3.26,6.24,1.58,3.81,3.36,11.17,3.26,15.23-.06,2.38-4.37.51-5.76-.09-8.41-3.66-9.24-14.26-9.77-22.22-.33-5,.65-10.5-1.8-15.11,1.12.09,2.69.77,3.72,1.25,3.99,1.84,8.76,4.93,12.03,7.85Z"/>
    <path class="cls-1" d="M41.76,58.79c.17.13,1.26-.13.62.76-6.52-.79-13.09,1.43-18.21,5.46.09.69.86.12,1.24-.04.97-.4,1.86-1.07,2.86-1.4,4.96-1.66,10.15-1.99,15.32-1.61-3.24,16.17-22.24,8.36-33.43,10.53,5.55-11.65,18.92-23.21,31.61-13.7Z"/>
    <path class="cls-1" d="M29.32,37.89c5.68.85,10.43,5.2,10.77,11.06.02.41.25,1.76-.42,1.67-1.23-3.27-5.08-6.24-8.33-7.33-.58-.2-.57-.8-1.25.09,2.77,1.16,7.79,5.84,8.74,8.58.22.64-.13.46-.46.59-3.72,1.54-7.14-.02-9.8-2.64l-8.48-12.3c2.92.34,6.37-.15,9.22.28Z"/>
    <path class="cls-1" d="M34.22,85.13c4.64-5.75,5.39-20.54,16.07-17.09-1.34,4.15-3.91,7.37-7.05,10.33,3.97-1.19,6.62-5.26,8.38-8.79,2.43,9.49-5.88,14.16-13.96,15.39-.54.08-3.29.51-3.44.16Z"/>
    <path class="cls-1" d="M73.14,26.67c.65,5.71-2.33,11.42-7.9,13.26-.39.13-1.63.69-1.72.03,2.84-2.03,4.72-6.52,4.93-9.94.04-.61.62-.76-.41-1.18-.41,2.97-3.63,9.03-6.03,10.66-.56.38-.48,0-.69-.29-2.45-3.19-1.82-6.9.02-10.15l9.69-11.37c.43,2.91,1.79,6.11,2.11,8.98Z"/>
    <path class="cls-1" d="M64.37,90.01c-7.12-4.99-10.92-13.78-6.85-22.08.14-.29-.22-.61.61-.51.63,6.42,4.25,12.85,9.64,16.44-.86-1.77-2.33-3.09-3.31-4.84-1.69-3-3.88-8.9-4.2-12.28-.19-1.97,3.56-.86,4.77-.49,7.32,2.2,9.05,10.88,10.28,17.41.77,4.1.5,8.75,2.99,12.31-.94.04-2.3-.37-3.2-.67-3.48-1.12-7.73-3.21-10.73-5.31Z"/>
    <path class="cls-1" d="M68.25,51.35c-.18-.12-1.25.19-.65-.73,6.55.48,13.01-2.06,17.93-6.33-.12-.68-.86-.07-1.24.1-.95.44-1.8,1.16-2.79,1.54-4.88,1.89-10.05,2.48-15.22,2.35,2.45-16.31,21.81-9.43,32.88-12.13-4.97,11.91-17.77,24.1-30.91,15.21Z"/>
    <path class="cls-1" d="M83.5,68.72c-5.63,1.14-11.58-1.32-13.9-6.71-.16-.38-.84-1.57-.18-1.71,2.27,2.65,6.91,4.13,10.33,4.05.61-.02.81.55,1.14-.51-3-.15-9.32-2.83-11.15-5.08-.43-.53-.03-.48.23-.71,2.97-2.72,6.71-2.42,10.11-.87l12.17,8.66c-2.86.68-5.93,2.32-8.76,2.89Z"/>
  </g>
</svg>