<svg viewBox="0 0 104 72" fill="none" xmlns="http://www.w3.org/2000/svg">
<path d="M44.1675 6.1923C48.071 10.634 49.1588 17.0586 45.1307 21.8855C44.989 22.0555 45.176 22.3217 44.6434 22.1234C45.261 17.7781 43.9069 12.9455 40.9213 9.70485C41.2045 11.0136 41.9637 12.124 42.332 13.4384C42.9665 15.6875 43.4594 19.9479 43.1308 22.2254C42.9382 23.5568 40.638 22.2141 39.8958 21.7835C35.4145 19.1491 35.6694 13.1324 35.913 8.61709C36.066 5.78439 36.9951 2.75339 35.9244 0C36.5476 0.124639 37.3804 0.61753 37.9299 0.957455C40.0488 2.2605 42.5246 4.32271 44.1619 6.1923H44.1675Z" fill="#F7F5EE"/>
<path d="M37.0065 27.5736C37.0688 27.6813 37.692 27.7889 37.1594 28.1062C33.9358 26.2423 30.0154 25.9477 26.4575 26.9108C26.3498 27.2904 26.8824 27.1601 27.1147 27.1657C27.7095 27.1771 28.3214 27.0184 28.9163 27.0694C31.8736 27.3074 34.6497 28.2818 37.2558 29.6302C31.9812 37.3408 23.8061 29.058 17.4948 27.7039C22.9676 22.86 32.5081 19.8007 37.0121 27.5736H37.0065Z" fill="#F7F5EE"/>
<path d="M27.6245 11.3534C30.7632 12.2202 33.137 14.985 32.9274 18.3049C32.9104 18.5372 32.95 19.3133 32.5818 19.217C32.1115 17.2965 30.1513 15.3589 28.395 14.5261C28.0778 14.3788 28.1288 14.0388 27.6869 14.4921C29.1655 15.3362 31.6696 18.3106 32.0209 19.9139C32.1059 20.2935 31.9133 20.1632 31.7263 20.2198C29.5281 20.8317 27.7152 19.7213 26.3951 18.067L22.4633 10.5716C24.0837 10.9625 26.0552 10.9229 27.6302 11.3534H27.6245Z" fill="#F7F5EE"/>
<path d="M75.4406 69.0499C67.4864 65.1295 59.9684 69.3615 52.1105 70.8515C42.8815 72.6021 32.882 72.1036 25.381 65.951C31.9133 68.3418 39.0857 68.523 45.9012 67.3333C51.5156 66.3532 57.368 64.0814 63.1297 64.5006C66.8519 64.7725 71.6278 66.6251 74.8231 68.523C75.0497 68.659 75.3896 68.7327 75.4406 69.0443V69.0499Z" fill="#F7F5EE"/>
<path d="M34.5477 48.4392C34.44 48.5752 34.3437 48.6998 34.3551 48.8868C35.5561 51.5439 35.5221 56.7107 33.035 58.6087C32.8254 58.7673 32.7744 59.0109 32.4118 58.9146C33.5506 48.6885 27.1317 40.8702 17.7724 37.6693L13.376 36.3776C20.2595 36.8818 27.6699 39.3349 32.0946 44.853C34.7573 42.3206 36.9045 37.8619 34.8876 34.4117C35.4372 34.1964 36.3549 35.6127 36.6779 36.1396C39.0687 40.0828 38.5815 43.448 35.9187 47.0229C35.5561 47.5101 34.8876 48.0143 34.542 48.4392H34.5477Z" fill="#F7F5EE"/>
<path d="M30.3156 52.0593C23.3415 56.0535 24.7295 63.0332 32.4062 65.0275C35.2275 65.7583 37.743 65.6393 40.587 65.7413C40.8363 65.7527 41.3575 65.5884 41.3065 65.9453C35.7317 66.9537 24.4632 66.8121 22.384 60.1552C21.166 56.2518 23.8684 51.8894 26.7181 49.4023C27.2563 48.932 28.5877 47.544 29.0806 48.2918C29.3865 48.7564 30.5252 51.6968 30.3156 52.0593Z" fill="#F7F5EE"/>
<path d="M39.5559 32.9671C39.5559 27.4546 43.2158 24.2593 47.6518 24.2593C50.0653 24.2593 51.7762 25.2904 52.8923 26.4179L50.9094 28.8257C50.0823 28.0665 49.1984 27.5056 47.7708 27.5056C45.2157 27.5056 43.3971 29.5168 43.3971 32.8481C43.3971 36.1794 44.9437 38.2472 48.071 38.2472C48.7339 38.2472 49.4251 38.0716 49.833 37.7544V34.8877H47.0796V31.8227H53.1699V39.4823C52.0255 40.6041 50.0029 41.4935 47.6858 41.4935C43.1081 41.4935 39.5502 38.5702 39.5502 32.9784L39.5559 32.9671Z" fill="#F7F5EE"/>
<path d="M56.2915 28.5311H59.3509L59.6228 30.7406H59.7134C60.6312 29.0523 62.0193 28.2252 63.3053 28.2252C64.0305 28.2252 64.4497 28.3158 64.8123 28.4801L64.1891 31.7151C63.7415 31.6018 63.3676 31.5111 62.8237 31.5111C61.872 31.5111 60.7105 32.1287 60.0364 33.8509V41.182H56.2915V28.5368V28.5311Z" fill="#F7F5EE"/>
<path d="M65.4468 34.8594C65.4468 30.7576 68.3759 28.2252 71.4125 28.2252C75.0157 28.2252 76.8003 30.8426 76.8003 34.2985C76.8003 34.9727 76.7153 35.6469 76.6417 35.9528H69.0727C69.407 37.7884 70.6647 38.6269 72.353 38.6269C73.3104 38.6269 74.1716 38.338 75.0894 37.7997L76.3301 40.0602C75.0327 40.9554 73.3444 41.4823 71.8431 41.4823C68.2399 41.4823 65.4468 39.0461 65.4468 34.8594ZM73.5994 33.477C73.5994 32.089 72.9932 31.0862 71.4975 31.0862C70.3134 31.0862 69.2937 31.8794 69.0387 33.477H73.5994Z" fill="#F7F5EE"/>
<path d="M78.6529 34.8594C78.6529 30.7576 81.5819 28.2252 84.6186 28.2252C88.2218 28.2252 90.0064 30.8426 90.0064 34.2985C90.0064 34.9727 89.9214 35.6469 89.8478 35.9528H82.2788C82.6131 37.7884 83.8708 38.6269 85.5591 38.6269C86.5165 38.6269 87.3777 38.338 88.2955 37.7997L89.5362 40.0602C88.2388 40.9554 86.5505 41.4823 85.0492 41.4823C81.446 41.4823 78.6529 39.0461 78.6529 34.8594ZM86.8055 33.477C86.8055 32.089 86.1993 31.0862 84.7036 31.0862C83.5195 31.0862 82.4997 31.8794 82.2448 33.477H86.8055Z" fill="#F7F5EE"/>
<path d="M92.5955 28.5311H95.6548L95.9268 30.1344H96.0174C97.0825 29.109 98.3572 28.2252 100.08 28.2252C102.833 28.2252 104 30.1684 104 33.3297V41.182H100.255V33.8113C100.255 31.9927 99.7679 31.4205 98.6858 31.4205C97.7454 31.4205 97.1675 31.8567 96.346 32.6499V41.182H92.6012V28.5368L92.5955 28.5311Z" fill="#F7F5EE"/>
<path d="M40.0091 45.1987H45.9918C49.5157 45.1987 52.4051 46.4224 52.4051 50.3712C52.4051 54.32 49.5157 55.8327 45.9918 55.8327H43.7653V61.8097H40.0091V45.193V45.1987ZM45.6859 52.8527C47.6631 52.8527 48.7226 52.0085 48.7226 50.3712C48.7226 48.7339 47.6631 48.1787 45.6859 48.1787H43.7653V52.8527H45.6859ZM45.3063 54.8469L47.9067 52.4447L53.2096 61.8153H49.0058L45.3063 54.8469Z" fill="#F7F5EE"/>
<path d="M54.8412 55.4926C54.8412 51.2889 57.8042 48.8584 60.9995 48.8584C64.1948 48.8584 67.1635 51.2889 67.1635 55.4926C67.1635 59.6964 64.2004 62.1155 60.9995 62.1155C57.7985 62.1155 54.8412 59.685 54.8412 55.4926ZM63.3223 55.4926C63.3223 53.3058 62.5518 51.8837 60.9995 51.8837C59.4472 51.8837 58.6823 53.3058 58.6823 55.4926C58.6823 57.6795 59.4528 59.0958 60.9995 59.0958C62.5461 59.0958 63.3223 57.6851 63.3223 55.4926Z" fill="#F7F5EE"/>
<path d="M69.5033 55.4926C69.5033 51.2889 72.4663 48.8584 75.6616 48.8584C78.8569 48.8584 81.8256 51.2889 81.8256 55.4926C81.8256 59.6964 78.8625 62.1155 75.6616 62.1155C72.4606 62.1155 69.5033 59.685 69.5033 55.4926ZM77.9844 55.4926C77.9844 53.3058 77.2139 51.8837 75.6616 51.8837C74.1093 51.8837 73.3444 53.3058 73.3444 55.4926C73.3444 57.6795 74.1149 59.0958 75.6616 59.0958C77.2082 59.0958 77.9844 57.6851 77.9844 55.4926Z" fill="#F7F5EE"/>
<path d="M84.7376 57.215V52.1048H83.0096V49.3061L84.9472 49.1644L85.3835 45.8048H88.4824V49.1644H91.5134V52.1048H88.4824V57.1696C88.4824 58.603 89.134 59.1809 90.1197 59.1809C90.539 59.1809 90.9922 59.0619 91.3208 58.9429L91.91 61.6623C91.2358 61.8776 90.3237 62.1212 89.1 62.1212C85.9727 62.1212 84.7319 60.1497 84.7319 57.215H84.7376Z" fill="#F7F5EE"/>
<path d="M93.1337 60.3535L94.822 58.0194C95.9664 58.8862 97.0259 59.3451 98.0853 59.3451C99.2014 59.3451 99.683 58.9202 99.683 58.2573C99.683 57.4245 98.4309 57.0449 97.1278 56.5351C95.5755 55.9345 93.7796 54.9034 93.7796 52.8185C93.7796 50.4617 95.6945 48.8584 98.6122 48.8584C100.55 48.8584 101.994 49.6402 103.071 50.4617L101.394 52.7109C100.493 52.0594 99.6036 51.6288 98.7312 51.6288C97.7624 51.6288 97.2865 52.0084 97.2865 52.6373C97.2865 53.4417 98.4706 53.7533 99.7793 54.2292C101.383 54.8241 103.184 55.7249 103.184 58.0364C103.184 60.3479 101.377 62.1155 97.989 62.1155C96.3234 62.1155 94.4141 61.3903 93.1337 60.3479V60.3535Z" fill="#F7F5EE"/>
<path d="M14.1749 21.1887C14.0616 25.3754 18.8035 32.2929 12.8095 34.4061C11.988 32.0719 12.039 29.7435 12.4356 27.33C11.0589 29.2336 11.2628 31.97 11.6821 34.1682C7.32538 30.7236 9.46691 25.772 12.6792 22.4351C12.8945 22.2141 13.9879 21.0754 14.1749 21.183V21.1887Z" fill="#F7F5EE"/>
<path d="M5.1442 33.3012C8.39614 33.1256 11.5291 34.9895 12.3846 38.2075C12.4469 38.4284 12.7245 39.1536 12.3449 39.1819C11.2912 37.5106 8.80972 36.2982 6.88348 36.066C6.53789 36.0263 6.47557 35.6864 6.20363 36.2586C7.87492 36.5872 11.1949 38.6097 12.039 40.0204C12.2373 40.3547 12.0163 40.2924 11.852 40.4C9.96546 41.6804 7.89192 41.2045 6.11298 40.0601L0 34.2077C1.65997 34.0604 3.51822 33.3975 5.1442 33.3069V33.3012Z" fill="#F7F5EE"/>
</svg>
