<svg width="184" height="118" viewBox="0 0 184 118" fill="none" xmlns="http://www.w3.org/2000/svg">
<path d="M77.9601 10.9494C84.8501 18.1951 86.7701 28.6756 79.6601 36.5497C79.4101 36.827 79.7401 37.2614 78.8001 36.9379C79.8901 29.8493 77.5001 21.9659 72.2301 16.6794C72.7301 18.8143 74.0701 20.6258 74.7201 22.7699C75.8401 26.439 76.7101 33.389 76.1301 37.1043C75.7901 39.2761 71.7301 37.0858 70.4201 36.3834C62.5101 32.0859 62.9601 22.2709 63.3901 14.905C63.6601 10.284 65.3001 5.33951 63.4101 0.8479C64.5101 1.05122 65.9801 1.85528 66.9501 2.4098C70.6901 4.53546 75.0601 7.89954 77.9501 10.9494H77.9601Z" fill="#F7F5EE"/>
<path d="M65.32 45.8287C65.43 46.0043 66.53 46.1799 65.59 46.6974C59.9 43.6568 52.98 43.1762 46.7 44.7474C46.51 45.3666 47.45 45.154 47.86 45.1633C48.91 45.1818 49.99 44.923 51.04 45.0062C56.26 45.3943 61.16 46.9839 65.76 49.1835C56.45 61.7619 42.02 48.2501 30.88 46.0413C40.54 38.1394 57.38 33.1487 65.33 45.8287H65.32Z" fill="#F7F5EE"/>
<path d="M48.76 19.3689C54.3 20.7829 58.49 25.293 58.12 30.7088C58.09 31.0878 58.16 32.3539 57.51 32.1968C56.68 29.0638 53.22 25.903 50.12 24.5444C49.56 24.3041 49.65 23.7496 48.87 24.489C51.48 25.866 55.9 30.7181 56.52 33.3336C56.67 33.9528 56.33 33.7402 56 33.8326C52.12 34.8308 48.92 33.0193 46.59 30.3207L39.65 18.0935C42.51 18.7312 45.99 18.6665 48.77 19.3689H48.76Z" fill="#F7F5EE"/>
<path d="M133.16 113.489C119.12 107.094 105.85 113.998 91.9799 116.428C75.6899 119.284 58.0399 118.471 44.7999 108.434C56.3299 112.334 68.9899 112.63 81.0199 110.689C90.9299 109.09 101.26 105.384 111.43 106.068C118 106.512 126.43 109.534 132.07 112.63C132.47 112.852 133.07 112.972 133.16 113.48V113.489Z" fill="#F7F5EE"/>
<path d="M60.98 79.867C60.79 80.0888 60.62 80.2921 60.64 80.5971C62.76 84.9316 62.7 93.3603 58.31 96.4564C57.94 96.7151 57.85 97.1125 57.21 96.9554C59.22 80.2736 47.89 67.5197 31.37 62.2979L23.61 60.1908C35.76 61.0133 48.84 65.0151 56.65 74.0168C61.35 69.8856 65.14 62.6122 61.58 56.9838C62.55 56.6326 64.17 58.9431 64.74 59.8026C68.96 66.235 68.1 71.7248 63.4 77.5565C62.76 78.3513 61.58 79.1738 60.97 79.867H60.98Z" fill="#F7F5EE"/>
<path d="M53.51 85.7727C41.2 92.2883 43.65 103.674 57.2 106.928C62.18 108.12 66.62 107.926 71.64 108.092C72.08 108.111 73 107.843 72.91 108.425C63.07 110.07 43.18 109.839 39.51 98.9795C37.36 92.6117 42.13 85.4954 47.16 81.4382C48.11 80.6711 50.46 78.4068 51.33 79.6267C51.87 80.3846 53.88 85.1812 53.51 85.7727Z" fill="#F7F5EE"/>
<path d="M69.8201 54.6271C69.8201 45.6346 76.2801 40.4221 84.1101 40.4221C88.3701 40.4221 91.3901 42.1042 93.3601 43.9433L89.8601 47.8712C88.4001 46.6327 86.8401 45.7178 84.3201 45.7178C79.8101 45.7178 76.6001 48.9987 76.6001 54.433C76.6001 59.8673 79.3301 63.2406 84.8501 63.2406C86.0201 63.2406 87.2401 62.9541 87.9601 62.4366V57.7601H83.1001V52.7602H93.8501V65.2554C91.8301 67.0853 88.2601 68.5363 84.1701 68.5363C76.0901 68.5363 69.8101 63.7674 69.8101 54.6456L69.8201 54.6271Z" fill="#F7F5EE"/>
<path d="M99.3601 47.3905H104.76L105.24 50.9949H105.4C107.02 48.2408 109.47 46.8915 111.74 46.8915C113.02 46.8915 113.76 47.0394 114.4 47.3074L113.3 52.5846C112.51 52.3997 111.85 52.2518 110.89 52.2518C109.21 52.2518 107.16 53.2592 105.97 56.0688V68.0279H99.3601V47.3998V47.3905Z" fill="#F7F5EE"/>
<path d="M115.52 57.7139C115.52 51.0227 120.69 46.8915 126.05 46.8915C132.41 46.8915 135.56 51.1613 135.56 56.7989C135.56 57.8987 135.41 58.9985 135.28 59.4976H121.92C122.51 62.492 124.73 63.8598 127.71 63.8598C129.4 63.8598 130.92 63.3885 132.54 62.5105L134.73 66.198C132.44 67.6583 129.46 68.5178 126.81 68.5178C120.45 68.5178 115.52 64.5437 115.52 57.7139ZM129.91 55.4588C129.91 53.1945 128.84 51.5587 126.2 51.5587C124.11 51.5587 122.31 52.8526 121.86 55.4588H129.91Z" fill="#F7F5EE"/>
<path d="M138.83 57.7139C138.83 51.0227 144 46.8915 149.36 46.8915C155.72 46.8915 158.87 51.1613 158.87 56.7989C158.87 57.8987 158.72 58.9985 158.59 59.4976H145.23C145.82 62.492 148.04 63.8598 151.02 63.8598C152.71 63.8598 154.23 63.3885 155.85 62.5105L158.04 66.198C155.75 67.6583 152.77 68.5178 150.12 68.5178C143.76 68.5178 138.83 64.5437 138.83 57.7139ZM153.22 55.4588C153.22 53.1945 152.15 51.5587 149.51 51.5587C147.42 51.5587 145.62 52.8526 145.17 55.4588H153.22Z" fill="#F7F5EE"/>
<path d="M163.44 47.3905H168.84L169.32 50.006H169.48C171.36 48.3332 173.61 46.8915 176.65 46.8915C181.51 46.8915 183.57 50.0615 183.57 55.2185V68.0279H176.96V56.0041C176.96 53.0374 176.1 52.104 174.19 52.104C172.53 52.104 171.51 52.8156 170.06 54.1095V68.0279H163.45V47.3998L163.44 47.3905Z" fill="#F7F5EE"/>
<path d="M70.62 74.5805H81.18C87.4 74.5805 92.5 76.5768 92.5 83.0185C92.5 89.4601 87.4 91.9278 81.18 91.9278H77.25V101.678H70.62V74.5713V74.5805ZM80.64 87.0665C84.13 87.0665 86 85.6894 86 83.0185C86 80.3475 84.13 79.4418 80.64 79.4418H77.25V87.0665H80.64ZM79.97 90.3197L84.56 86.401L93.92 101.687H86.5L79.97 90.3197Z" fill="#F7F5EE"/>
<path d="M96.8 91.3733C96.8 84.5157 102.03 80.5509 107.67 80.5509C113.31 80.5509 118.55 84.5157 118.55 91.3733C118.55 98.2308 113.32 102.177 107.67 102.177C102.02 102.177 96.8 98.2124 96.8 91.3733ZM111.77 91.3733C111.77 87.8059 110.41 85.4861 107.67 85.4861C104.93 85.4861 103.58 87.8059 103.58 91.3733C103.58 94.9407 104.94 97.2512 107.67 97.2512C110.4 97.2512 111.77 94.9499 111.77 91.3733Z" fill="#F7F5EE"/>
<path d="M122.68 91.3733C122.68 84.5157 127.91 80.5509 133.55 80.5509C139.19 80.5509 144.43 84.5157 144.43 91.3733C144.43 98.2308 139.2 102.177 133.55 102.177C127.9 102.177 122.68 98.2124 122.68 91.3733ZM137.65 91.3733C137.65 87.8059 136.29 85.4861 133.55 85.4861C130.81 85.4861 129.46 87.8059 129.46 91.3733C129.46 94.9407 130.82 97.2512 133.55 97.2512C136.28 97.2512 137.65 94.9499 137.65 91.3733Z" fill="#F7F5EE"/>
<path d="M149.57 94.1828V85.8466H146.52V81.281L149.94 81.05L150.71 75.5695H156.18V81.05H161.53V85.8466H156.18V94.1089C156.18 96.4471 157.33 97.3898 159.07 97.3898C159.81 97.3898 160.61 97.1957 161.19 97.0017L162.23 101.438C161.04 101.789 159.43 102.186 157.27 102.186C151.75 102.186 149.56 98.9702 149.56 94.1828H149.57Z" fill="#F7F5EE"/>
<path d="M164.39 99.3029L167.37 95.4952C169.39 96.9092 171.26 97.6578 173.13 97.6578C175.1 97.6578 175.95 96.9647 175.95 95.8834C175.95 94.5248 173.74 93.9056 171.44 93.0738C168.7 92.0942 165.53 90.4121 165.53 87.0111C165.53 83.1664 168.91 80.5509 174.06 80.5509C177.48 80.5509 180.03 81.8263 181.93 83.1664L178.97 86.8355C177.38 85.7726 175.81 85.0702 174.27 85.0702C172.56 85.0702 171.72 85.6895 171.72 86.7153C171.72 88.0277 173.81 88.536 176.12 89.3123C178.95 90.2827 182.13 91.7522 182.13 95.5229C182.13 99.2937 178.94 102.177 172.96 102.177C170.02 102.177 166.65 100.994 164.39 99.2937V99.3029Z" fill="#F7F5EE"/>
<path d="M25.02 35.4129C24.82 42.2427 33.19 53.5272 22.61 56.9745C21.16 53.1668 21.25 49.3683 21.95 45.4312C19.52 48.5365 19.88 53.0004 20.62 56.5863C12.93 50.9672 16.71 42.8897 22.38 37.4461C22.76 37.0857 24.69 35.228 25.02 35.4036V35.4129Z" fill="#F7F5EE"/>
<path d="M9.08 55.1723C14.82 54.8858 20.35 57.9264 21.86 63.1759C21.97 63.5363 22.46 64.7193 21.79 64.7655C19.93 62.0391 15.55 60.0613 12.15 59.6824C11.54 59.6177 11.43 59.0632 10.95 59.9966C13.9 60.5326 19.76 63.832 21.25 66.1333C21.6 66.6786 21.21 66.5769 20.92 66.7525C17.59 68.8412 13.93 68.0649 10.79 66.198L0 56.651C2.93 56.4107 6.21 55.3294 9.08 55.1815V55.1723Z" fill="#F7F5EE"/>
</svg>
