<svg width="184" height="118" viewBox="0 0 184 118" fill="none" xmlns="http://www.w3.org/2000/svg">
<path d="M77.96 10.1009C84.85 17.3466 86.77 27.827 79.66 35.7012C79.41 35.9785 79.74 36.4129 78.8 36.0894C79.89 29.0008 77.5 21.1174 72.23 15.8309C72.73 17.9658 74.07 19.7773 74.72 21.9214C75.84 25.5905 76.71 32.5405 76.13 36.2558C75.79 38.4276 71.73 36.2373 70.42 35.5349C62.51 31.2373 62.96 21.4223 63.39 14.0565C63.66 9.43547 65.3 4.491 63.41 -0.000610352C64.51 0.202714 65.98 1.00677 66.95 1.56129C70.69 3.68695 75.06 7.05103 77.95 10.1009H77.96Z" fill="black"/>
<path d="M65.32 44.9802C65.43 45.1558 66.53 45.3314 65.59 45.8489C59.9 42.8083 52.98 42.3277 46.7 43.8989C46.51 44.5181 47.45 44.3055 47.86 44.3148C48.91 44.3332 49.99 44.0745 51.04 44.1576C56.26 44.5458 61.16 46.1354 65.76 48.335C56.45 60.9134 42.02 47.4016 30.88 45.1927C40.54 37.2908 57.38 32.3002 65.33 44.9802H65.32Z" fill="black"/>
<path d="M48.76 18.5204C54.3 19.9344 58.49 24.4445 58.12 29.8603C58.09 30.2392 58.16 31.5054 57.51 31.3483C56.68 28.2152 53.22 25.0545 50.12 23.6959C49.56 23.4556 49.65 22.9011 48.87 23.6405C51.48 25.0175 55.9 29.8696 56.52 32.4851C56.67 33.1043 56.33 32.8917 56 32.9841C52.12 33.9823 48.92 32.1708 46.59 29.4722L39.65 17.245C42.51 17.8827 45.99 17.818 48.77 18.5204H48.76Z" fill="black"/>
<path d="M133.16 112.641C119.12 106.245 105.85 113.149 91.98 115.58C75.69 118.436 58.04 117.622 44.8 107.586C56.33 111.486 68.99 111.781 81.02 109.841C90.93 108.242 101.26 104.536 111.43 105.22C118 105.663 126.43 108.685 132.07 111.781C132.47 112.003 133.07 112.123 133.16 112.632V112.641Z" fill="black"/>
<path d="M60.98 79.0186C60.79 79.2404 60.62 79.4437 60.64 79.7487C62.76 84.0832 62.7 92.5119 58.31 95.608C57.94 95.8668 57.85 96.2642 57.21 96.107C59.22 79.4252 47.89 66.6713 31.37 61.4496L23.61 59.3424C35.76 60.1649 48.84 64.1667 56.65 73.1684C61.35 69.0372 65.14 61.7638 61.58 56.1354C62.55 55.7842 64.17 58.0947 64.74 58.9542C68.96 65.3866 68.1 70.8764 63.4 76.7081C62.76 77.5029 61.58 78.3254 60.97 79.0186H60.98Z" fill="black"/>
<path d="M53.51 84.9243C41.2 91.4399 43.65 102.826 57.2 106.079C62.18 107.271 66.62 107.077 71.64 107.244C72.08 107.262 73 106.994 72.91 107.576C63.07 109.221 43.18 108.99 39.51 98.1311C37.36 91.7634 42.13 84.647 47.16 80.5898C48.11 79.8227 50.46 77.5584 51.33 78.7783C51.87 79.5362 53.88 84.3328 53.51 84.9243Z" fill="black"/>
<path d="M69.82 53.7787C69.82 44.7862 76.28 39.5737 84.11 39.5737C88.37 39.5737 91.39 41.2558 93.36 43.0949L89.86 47.0228C88.4 45.7844 86.84 44.8694 84.32 44.8694C79.81 44.8694 76.6 48.1503 76.6 53.5846C76.6 59.0189 79.33 62.3922 84.85 62.3922C86.02 62.3922 87.24 62.1057 87.96 61.5882V56.9117H83.1V51.9118H93.85V64.407C91.83 66.2369 88.26 67.6879 84.17 67.6879C76.09 67.6879 69.81 62.919 69.81 53.7972L69.82 53.7787Z" fill="black"/>
<path d="M99.36 46.5422H104.76L105.24 50.1465H105.4C107.02 47.3924 109.47 46.0431 111.74 46.0431C113.02 46.0431 113.76 46.191 114.4 46.459L113.3 51.7362C112.51 51.5513 111.85 51.4035 110.89 51.4035C109.21 51.4035 107.16 52.4108 105.97 55.2204V67.1795H99.36V46.5514V46.5422Z" fill="black"/>
<path d="M115.52 56.8655C115.52 50.1743 120.69 46.0431 126.05 46.0431C132.41 46.0431 135.56 50.3129 135.56 55.9505C135.56 57.0503 135.41 58.1501 135.28 58.6492H121.92C122.51 61.6436 124.73 63.0114 127.71 63.0114C129.4 63.0114 130.92 62.5401 132.54 61.6621L134.73 65.3496C132.44 66.8099 129.46 67.6694 126.81 67.6694C120.45 67.6694 115.52 63.6953 115.52 56.8655ZM129.91 54.6104C129.91 52.3461 128.84 50.7103 126.2 50.7103C124.11 50.7103 122.31 52.0042 121.86 54.6104H129.91Z" fill="black"/>
<path d="M138.83 56.8655C138.83 50.1743 144 46.0431 149.36 46.0431C155.72 46.0431 158.87 50.3129 158.87 55.9505C158.87 57.0503 158.72 58.1501 158.59 58.6492H145.23C145.82 61.6436 148.04 63.0114 151.02 63.0114C152.71 63.0114 154.23 62.5401 155.85 61.6621L158.04 65.3496C155.75 66.8099 152.77 67.6694 150.12 67.6694C143.76 67.6694 138.83 63.6953 138.83 56.8655ZM153.22 54.6104C153.22 52.3461 152.15 50.7103 149.51 50.7103C147.42 50.7103 145.62 52.0042 145.17 54.6104H153.22Z" fill="black"/>
<path d="M163.44 46.5422H168.84L169.32 49.1576H169.48C171.36 47.4848 173.61 46.0431 176.65 46.0431C181.51 46.0431 183.57 49.2131 183.57 54.3701V67.1795H176.96V55.1557C176.96 52.189 176.1 51.2556 174.19 51.2556C172.53 51.2556 171.51 51.9672 170.06 53.2611V67.1795H163.45V46.5514L163.44 46.5422Z" fill="black"/>
<path d="M70.62 73.7321H81.18C87.4 73.7321 92.5 75.7284 92.5 82.1701C92.5 88.6118 87.4 91.0794 81.18 91.0794H77.25V100.83H70.62V73.7229V73.7321ZM80.64 86.2181C84.13 86.2181 86 84.841 86 82.1701C86 79.4991 84.13 78.5934 80.64 78.5934H77.25V86.2181H80.64ZM79.97 89.4713L84.56 85.5527L93.92 100.839H86.5L79.97 89.4713Z" fill="black"/>
<path d="M96.8 90.5249C96.8 83.6673 102.03 79.7025 107.67 79.7025C113.31 79.7025 118.55 83.6673 118.55 90.5249C118.55 97.3825 113.32 101.329 107.67 101.329C102.02 101.329 96.8 97.364 96.8 90.5249ZM111.77 90.5249C111.77 86.9575 110.41 84.6377 107.67 84.6377C104.93 84.6377 103.58 86.9575 103.58 90.5249C103.58 94.0923 104.94 96.4028 107.67 96.4028C110.4 96.4028 111.77 94.1015 111.77 90.5249Z" fill="black"/>
<path d="M122.68 90.5249C122.68 83.6673 127.91 79.7025 133.55 79.7025C139.19 79.7025 144.43 83.6673 144.43 90.5249C144.43 97.3825 139.2 101.329 133.55 101.329C127.9 101.329 122.68 97.364 122.68 90.5249ZM137.65 90.5249C137.65 86.9575 136.29 84.6377 133.55 84.6377C130.81 84.6377 129.46 86.9575 129.46 90.5249C129.46 94.0923 130.82 96.4028 133.55 96.4028C136.28 96.4028 137.65 94.1015 137.65 90.5249Z" fill="black"/>
<path d="M149.57 93.3345V84.9982H146.52V80.4326L149.94 80.2016L150.71 74.7211H156.18V80.2016H161.53V84.9982H156.18V93.2605C156.18 95.5987 157.33 96.5414 159.07 96.5414C159.81 96.5414 160.61 96.3473 161.19 96.1533L162.23 100.589C161.04 100.941 159.43 101.338 157.27 101.338C151.75 101.338 149.56 98.1218 149.56 93.3345H149.57Z" fill="black"/>
<path d="M164.39 98.4545L167.37 94.6468C169.39 96.0609 171.26 96.8095 173.13 96.8095C175.1 96.8095 175.95 96.1163 175.95 95.035C175.95 93.6764 173.74 93.0572 171.44 92.2254C168.7 91.2458 165.53 89.5637 165.53 86.1627C165.53 82.318 168.91 79.7025 174.06 79.7025C177.48 79.7025 180.03 80.9779 181.93 82.318L178.97 85.9871C177.38 84.9242 175.81 84.2219 174.27 84.2219C172.56 84.2219 171.72 84.8411 171.72 85.8669C171.72 87.1793 173.81 87.6876 176.12 88.4639C178.95 89.4343 182.13 90.9038 182.13 94.6746C182.13 98.4453 178.94 101.329 172.96 101.329C170.02 101.329 166.65 100.146 164.39 98.4453V98.4545Z" fill="black"/>
<path d="M25.02 34.5645C24.82 41.3943 33.19 52.6788 22.61 56.1261C21.16 52.3184 21.25 48.5199 21.95 44.5828C19.52 47.6881 19.88 52.152 20.62 55.7379C12.93 50.1188 16.71 42.0413 22.38 36.5977C22.76 36.2373 24.69 34.3797 25.02 34.5553V34.5645Z" fill="black"/>
<path d="M9.08 54.3239C14.82 54.0374 20.35 57.078 21.86 62.3275C21.97 62.6879 22.46 63.8709 21.79 63.9171C19.93 61.1907 15.55 59.2129 12.15 58.834C11.54 58.7693 11.43 58.2148 10.95 59.1482C13.9 59.6843 19.76 62.9836 21.25 65.2849C21.6 65.8302 21.21 65.7285 20.92 65.9041C17.59 67.9928 13.93 67.2165 10.79 65.3496L0 55.8026C2.93 55.5623 6.21 54.481 9.08 54.3331V54.3239Z" fill="black"/>
</svg>
